# xmcd
#
# Track frame offsets: 
#        150
#        15675
#        31464
#        47289
#        59167
#        71617
#        85303
#        104919
#        122019
#        137766
#        154866
#        176951
#        196076
#        207776
#
# Disc length: 3001 seconds
#
# Revision: 0
# Processed by: cddbd v1.5.2PL0 Copyright (c) Steve Scherf et al.
# Submitted via: ExactAudioCopy v1.1
#
DISCID=cb0bb70e
DTITLE=Warszawska Orkiestra Sentymentalna - Bootleg
DYEAR=1900
DGENRE=Jazz, Folk, World, and Country, Stage and Screen
TTITLE0=Abram
TTITLE1=Nikodem
TTITLE2=Kiedy bedziesz zakochany
TTITLE3=Wsrod Georginij
TTITLE4=Dla ciebie chce byc biala
TTITLE5=Oh, L'Amour
TTITLE6=Hokus pokus
TTITLE7=Stachu
TTITLE8=List do Palestyny
TTITLE9=Rumba Fiesta
TTITLE10=Mow
TTITLE11=Noc w wielkim miescie
TTITLE12=Panama
TTITLE13=Cierpienia milosne
EXTD=
EXTT0=
EXTT1=
EXTT2=
EXTT3=
EXTT4=
EXTT5=
EXTT6=
EXTT7=
EXTT8=
EXTT9=
EXTT10=
EXTT11=
EXTT12=
EXTT13=
PLAYORDER=
